<mxfile host="app.diagrams.net" modified="2020-05-18T05:08:27.724Z" agent="5.0 (iPad; CPU OS 13_3 like Mac OS X) AppleWebKit/605.1.15 (KHTML, like Gecko) CriOS/81.0.4044.124 Mobile/15E148 Safari/604.1" etag="YklkJnY_uZcnzdwMKJeD" version="13.1.2" type="github">
  <diagram id="YfqI_cfsG6HdaY4mybaq" name="Page-1">
    <mxGraphModel dx="526" dy="484" grid="1" gridSize="10" guides="1" tooltips="1" connect="1" arrows="1" fold="1" page="1" pageScale="1" pageWidth="827" pageHeight="1169" math="0" shadow="0">
      <root>
        <mxCell id="0" />
        <mxCell id="1" parent="0" />
        <mxCell id="JmDXFM_xtp_L32-k9JKl-1" value="" style="rounded=1;whiteSpace=wrap;html=1;" parent="1" vertex="1">
          <mxGeometry x="220" y="230" width="120" height="60" as="geometry" />
        </mxCell>
      </root>
    </mxGraphModel>
  </diagram>
</mxfile>
